<svg width="649.6" height="678.05" viewBox="0 0 171.87 179.4" xml:space="preserve" xmlns:xlink="http://www.w3.org/1999/xlink" xmlns="http://www.w3.org/2000/svg"><defs><linearGradient id="a"><stop style="stop-color:{{ .Site.Params.primary_colour }};stop-opacity:1" offset="0"/><stop style="stop-color:{{ .Site.Params.secondary_colour }};stop-opacity:1" offset="1"/></linearGradient><linearGradient xlink:href="#a" id="b" x1="57.21" y1="214.53" x2="166.85" y2="90.58" gradientUnits="userSpaceOnUse"/></defs><g style="display:inline"><path style="display:inline;opacity:1;fill:url(#b);fill-opacity:1;stroke-width:.264583" d="M133.73 67s-2.76 2.13-14.67 6.64c-11.92 4.52-17.07 3.9-24.84 8.03-7.78 4.14-11.67 11.8-11.67 11.8s1.88-5.78 3.26-8.41c1.38-2.64 6.52-7.78 6.52-7.78s-9.4 4.01-15.55 8.9c-6.15 4.9-5.9 9.3-5.9 9.3s-13.3-.51-14.17.5c-.88 1-2.01 5.51-3.9 7.27-1.88 1.76-6.52 2.63-8.02 4.64-1.5 2-4.77 9.91-7.53 12.04-2.76 2.14-12.17 2.14-12.17 2.14s2.13 7.4 5.65 12.04a29.52 29.52 0 0 0 7.9 7.15c-9.73 11.27-15.99 19.05-18.82 33.25 6.82-1.06 12.33-2.13 18.57-5.27-6.23 11.1-3 34.52 9.66 49.55 0 0-.25-3.13-.25-4.64 0-1.5 1.38-5.27 2.88-9.4 1.5-4.15 2.39-10.17 2.39-10.17s1.88 4.4 4.01 7.78c2.13 3.39 3.64 9.66 3.14 15.05-.5 5.4-4.52 7.9-4.52 7.9s7.4 1.89 12.67-2.63c5.27-4.51 6.15-8.65 6.15-8.65 2.9 8.7 4.4 12.88 2.13 23.33 4.5-3.95 7-8.07 9.16-13.3-.44 9.23-1.26 14.74-6.02 22.33 28.34-1.46 38.22-16.8 46.17-30.98-3.03 8.41-6.33 15.17-10.54 23.58 10.53-4.56 20.64-13.28 21.33-23.96 0 0 2 4.39 7.52 7.9 5.52 3.52 12.05 2.76 12.05 2.76s-4.63-5.6-5.15-10.54c-.68-6.51 5.45-11.75 7.28-21.2 1.03 10.4 5.06 11.22 5.64 24.47 10.06-13.65 17.02-37.3 8.41-49.3a61.55 61.55 0 0 0 19.2 5.64c-3.62-13.47-8.2-24.49-18.82-33.5 0 0 4.26-2.76 8.9-7.65 4.65-4.9 4.65-11.54 4.65-11.54s-8.48.16-11.92-1.5c-1.57-.77-4.64-8.66-7.4-11.93-2.76-3.26-7.78-5.01-9.54-6.02-1.76-1-1.25-5.77-2.76-6.52-1.5-.75-15.18-.38-15.18-.38s.5-3.89.63-6.27c.12-2.38-1.26-6.78-1.26-6.78s-1.88 3.27-4.51 5.4c-2.64 2.13-5.77 3.76-5.77 3.76s3-9.16 4.01-13.04c1-3.9 1-11.8 1-11.8zm-4.57 6.27c-24.08 15.28-32.14 35.92-22.7 52.25-15.62-9.1-19.06-21.36-15.03-29.83 4.94-10.39 24.97-18.71 37.73-22.42Zm.8 3.46s-1.42 10.83-3.37 13.93c-1.95 3.1-10.38 9.76-14.73 13.57a22.02 22.02 0 0 0-5.94 9.23c-.5-8.63 4.33-18.17 10.38-26.17 6.12-8.1 13.66-10.56 13.66-10.56zm-34.33 8.79c-6.87 5.8-9.45 12.5-9.47 18.25-.03 5.94 5.03 11.42 7.87 14.66-3.65-2.68-11.27-6.9-11.83-15.29-.28-4.33 1.47-8.55 13.43-17.62zm-13.84.08c-2.23 4.06-3.6 8.32-3.02 12.6.63 4.57 3.1 10.82 3.1 10.82-2.97-2.58-5.4-3.89-6.91-9.13-2.08-7.2 6.83-14.29 6.83-14.29Zm55.62 3.64s-.53 12.67-3.64 17.92c-3.46 5.86-9.49 9.4-9.49 9.4s-1.36-2.23-5.32-.88c-4.76 1.61-10.38 7.54-10.38 7.54s-.04-7.95 2.66-11.8c4.03-5.74 18.04-6.84 26.17-22.18zm-72.95 12.28c1.37 0 3.35.74 4.52 1.2.59.24 1.75.57 2.85.85.85.5 1.62 1.01 2.19 1.56 2.76 2.64 5.9 8.66 8.78 11.17 2.89 2.5 6.52 5.27 6.52 5.27s-.87-4.52 6.15.12c7.03 4.64 10.41 7.9 10.41 7.9s5.97-5.46 10.67-8.53c6.33-4.14 5.77.76 5.77.76s8.28-5.9 10.91-9.54c1.83-2.52 3.16-6.16 3.81-8.17a53.5 53.5 0 0 0 4.98-1.38c1.33-.54 3.73-1.42 5.06-1.16 1.33.27 5.59 3.64 7.1 7.28 1.5 3.63.2 8.66-2.3 12.06-2.11 2.86-5.6 6.65-7.82 7.28-1 .27-2.04.23-2.9.1l-.11-.64a9.03 9.03 0 0 0 4.1-.94 6.42 6.42 0 0 0-1.95-3.99c3.32-.89 5.4-3.43 6.86-6.33-2.93-.1-5.91-.72-7.48-1.22 0 0 2.27-1.12 3.6-2.16.94.33 1.84.76 2.73 1.15 2.7 1.2 5.96 1.45 3.45-1.38-2.5-2.82-7.33-6.02-9.47-5.77-2.13.25-3.76 3.14-6.58 5.65-2.83 2.5-6.21 4.95-6.21 4.95s4.76-2.13 9.1-4.14a9.18 9.18 0 0 1 4.67-.95c-1.78 1.67-4.36 3-4.36 3a24.15 24.15 0 0 0 8.46 1.9c-1.52 2.13-4.7 4.5-7.91 4.68 1.47.97 3.26 1.52 4.03 4.15 0 0-2.08.42-3.28.35-.27-1-.63-2-1.14-3.03a9 9 0 0 0-5.9-4.57c-1.55-.26-2 .8-.44 1.56 1.55.75 4.44 5.59 4.66 7.94.22 2.35-.93 4.39-.76 8.11.18 3.73 1.78 8.56 2.44 10.56.67 2 .76 4.61.54 8.12-.23 3.5-2.67 6.83-3.95 8.69-1.29 1.86-4.48 8.34-4.48 8.34s-.27-2.13-.8-3.28c-.53-1.16-1.95-3.37-2.35-3.15-.28.15-.23.7-.05 1.5-.2-.24-.6-.33-.81-.05-.1.29-.12.8-.56.58-.4-.1-.65.28-.77.6-.15.44.14.83.28 1.22a1.84 1.84 0 0 0-1.25-.34c-.37.03-.52.44-.56.77-.13.01-.42-.18-.66-.07-.64.41-.28 1.34-.13 1.87a1.5 1.5 0 0 0-1.07-.69.8.8 0 0 0-.69.78c-.05.87.15 1.67.93 1.9.87.06 1.26-.66 1.17-1.4.1.29.65.53.95.38.48-.26.35-.8.34-1.13.16.07.47.4.94.13.47-.42.57-.76.62-1.3.35.18.9-.08.97-.43.07-.17 0-.63.23-.31.19.15.45.14.61 0 .1.8.2 1.86.25 3.06-.26-.1-.68.07-.93.44-.31.52-.33 1.48-.5 1.65-1.02-.13-1.23 1.23-1.13 2.01.17 1.1 1.13.66 1.52 0 .28-.02.66.2.97.21a20 20 0 0 1-.68 4.07c-.1-.16-.29-.2-.5-.08-.45.24-.68.54-.8.87-.47-.3-1.06.47-1.43.88-.1-.27-.56-.62-.96-.13-.3.36-.53 1.45.19 1.6.42.1.56-.02.96-.36.61.2.97-.15 1.17-.59.1.15.25.17.4.12-1.68 3.06-4.24 4-6.6 3.93-2.76-.1-5.68-3.24-9.23-5.72-3.55-2.49-4.75-4.7-4.35-7.68.4-2.97 5.6-4.74 5.6-5.05 0-.32-1.74-.98-1.83-1.51-.09-.54 1.24-1.24 2.04-1.38.8-.13 1.29 2.13 2.3 1.86 1.03-.26 2.5-1.86 3.2-4.08.71-2.21-.3-7.45-.3-7.45s-.19 4.44-.76 5.64c-.58 1.2-1.51 1.86-2 1.77-.49-.09.05-.8-1.06-1.06-1.11-.27-3.06 0-5.5.35s-3.42.93-3.42.93l-.24.2-.24-.2s-.98-.58-3.42-.93c-2.44-.35-4.39-.62-5.5-.35-1.1.26-.57.97-1.06 1.06-.49.09-1.42-.58-2-1.77-.57-1.2-.75-5.64-.75-5.64s-1.02 5.24-.31 7.45c.7 2.22 2.17 3.82 3.2 4.08 1.01.27 1.5-2 2.3-1.86.8.14 2.13.84 2.04 1.38-.1.53-1.82 1.2-1.82 1.5 0 .32 5.19 2.09 5.59 5.06.4 2.97-.8 5.2-4.35 7.68-3.55 2.48-6.47 5.63-9.22 5.72-2.37.07-4.93-.87-6.62-3.93.16.05.31.03.4-.12.21.44.57.78 1.18.59.4.34.54.46.96.37.72-.16.48-1.25.19-1.61-.4-.49-.85-.14-.96.13-.37-.41-.96-1.17-1.44-.88a1.53 1.53 0 0 0-.78-.87c-.22-.12-.41-.08-.5.08a20 20 0 0 1-.7-4.07c.32 0 .7-.23.98-.2.39.65 1.35 1.09 1.52 0 .1-.79-.1-2.15-1.13-2.02-.17-.17-.19-1.13-.5-1.65-.25-.37-.67-.55-.93-.44.05-1.2.15-2.26.25-3.06.16.14.42.15.6 0 .23-.32.17.14.24.31.07.35.62.6.97.43.05.54.15.88.62 1.3.47.27.78-.06.94-.13 0 .34-.14.87.34 1.13.3.15.85-.1.95-.37-.09.73.3 1.45 1.17 1.39.78-.23.98-1.03.93-1.9a.8.8 0 0 0-.7-.78 1.5 1.5 0 0 0-1.06.69c.15-.53.5-1.46-.13-1.87-.24-.1-.53.08-.66.07-.04-.33-.19-.74-.56-.77-.44-.03-.9.07-1.25.34.14-.39.43-.78.28-1.21-.12-.33-.37-.7-.77-.61-.44.22-.46-.29-.56-.58-.21-.28-.6-.2-.81.04.18-.8.23-1.34-.05-1.5-.4-.21-1.82 2-2.35 3.16-.53 1.15-.8 3.28-.8 3.28s-3.2-6.48-4.48-8.34c-1.28-1.86-3.72-5.19-3.95-8.7-.22-3.5-.13-6.11.54-8.11.66-2 2.26-6.83 2.44-10.56.17-3.72-.98-5.76-.76-8.11.22-2.35 3.1-7.19 4.66-7.94 1.55-.76 1.1-1.82-.44-1.56a9 9 0 0 0-5.9 4.57 15.55 15.55 0 0 0-1.14 3.03c-1.2.07-3.28-.35-3.28-.35.77-2.63 2.56-3.18 4.03-4.15-3.22-.17-6.39-2.55-7.91-4.67 2.16-.07 5.74-.65 8.46-1.9 0 0-2.58-1.34-4.36-3.01 1.35-.1 2.87.12 4.68.95 4.33 2.01 9.1 4.14 9.1 4.14s-3.4-2.44-6.22-4.95c-2.82-2.51-4.45-5.4-6.58-5.65-2.14-.25-6.97 2.95-9.47 5.77-2.51 2.83.75 2.58 3.45 1.38.89-.4 1.79-.82 2.74-1.15a25.23 25.23 0 0 0 3.6 2.16 31.5 31.5 0 0 1-7.49 1.22c1.47 2.9 3.54 5.44 6.86 6.33a6.42 6.42 0 0 0-1.95 3.99c1.54.7 2.51.92 4.1.94l-.12.64c-.85.13-1.9.17-2.9-.1-2.21-.63-5.7-4.42-7.8-7.28-2.51-3.4-3.82-8.43-2.3-12.06 1.5-3.64 5.76-7.01 7.09-7.28.17-.03.35-.05.54-.05zm-13.9 6.35s2.13 8.43 4.97 12.69a26.74 26.74 0 0 0 4.08 4.62c1.19 1.2 2.44 2.3 3.63 3.14-.75-.12-5.6-.91-8.06-1.73-2.66-.89-6.92-3.1-8.34-6.48-1.42-3.37 3.72-12.24 3.72-12.24zm111.03.4s1.12 2.5 2.25 5.64c1.13 3.14 3.9 9.04-4.89 12.55-8.78 3.51-10.79 2-10.79 2s7.53-5.9 9.54-9.53c2-3.64 3.89-10.66 3.89-10.66zm19.57 18.69s-6.78 11.42-12.8 11.92c-6.02.5-18.57-7.4-18.57-7.4s10.8.87 17.06.37c6.28-.5 14.3-4.89 14.3-4.89zm-150.73.43s11.44 4.52 17.03 4.97c5.59.44 14.37-1.25 14.37-1.25s-11.09 9.85-18.54 7.72c-7.45-2.13-12.86-11.44-12.86-11.44zm38.7 4.09s.16 1.84.24 4.23c-.06 3.02-.18 6.6-.88 8.13-1.07 2.35-3.73 6.17-3.55 9.94.12 2.58.12 4.46 1.84 7.63.25.55.57 1.06.92 1.56a50.6 50.6 0 0 0 2.7 3.8c1.51 1.98 2.58 3.35 3.4 4.46.65 1.34 1.38 2.94 2.73 5.28.66 1.15 1.3 2.32 1.92 3.47 1.14 3.6 1.33 6.98 4.4 8.93l.09.04c.56 1.24 2.23 1.75 3.59 2.21.87.88 1.7 1.94 1.92 2.98.53 2.48 2.7 5.01 4.43 6.3l.12.07.09.1c1.66 1.47 4.26 1.95 6.72 2.02l.44.03.45-.02c.37 0 .73 0 1.08-.02l3.72-.05c.13 0 4.42.04 5.25.09.9.04 5.64-.93 7.37-2.22.78-.59 1.66-1.43 2.44-2.41a7.49 7.49 0 0 0 1.59-2.64c.17-.41.31-.83.4-1.25.28-1.3 1.5-2.64 2.59-3.6 1.1-.5 2.3-.87 3.33-1.73a5 5 0 0 0 .5-.52c1.54-1.34 2.16-3.17 2.71-5.21.39-.87.77-1.74 1.18-2.55 1.5-3.01 2.25-3.76 4.39-8.53a27.7 27.7 0 0 1 2.92-4.65l.43-.58a46.5 46.5 0 0 0 3.13-4.49c1.33-2.12 2.4-4.36 2.68-6.72.75-6.27-3.52-10.03-4.27-13.92-.75-3.9 1-9.29 1-9.29s1.76 6.03 5.65 13.3c3.89 7.28 11.42 9.79 18.44 12.55 7.03 2.76 13.93 11.16 13.93 11.16s-5.77-2.76-9.66-4.01c-3.9-1.26-11.3-2.76-16.31-4.64-4.1-1.54-5.75-6.18-6.22-7.87.21.86.53 2.53.45 4.86-.13 3.38-1.13 5.9-1 6.52.12.63 5.26 2.38 9.15 5.52 3.89 3.14 7.15 7.9 8.78 18.7 1.63 10.78-.88 21.32-.88 21.32s-2.13-13.17-4.64-21.58c-2.5-8.4-10.03-19.95-13.55-20.32-3.5-.38-6.14 5.64-6.65 8.15-.5 2.51.63 5.27 1.51 11.42s-.88 15.43-.88 15.43-1-8.15-1.63-10.79c-.63-2.63-1.76-6.77-3.14-6.77-1.38 0-4.14 3-4.89 6.14-.75 3.14-1.88 4.52-3.51 6.28-1.63 1.75-1.38 6.27-3.39 12.54-2 6.27-8.15 15.06-18.06 23.21-9.91 8.16-20.7 10.29-20.7 10.29s9.78-6.27 21.32-18.07c11.55-11.79 10.8-21.32 10.8-21.32s-2.9 1.63-7.16 2.25c-4.26.63-10.91.88-14.05 2.14-3.14 1.25-5.9 6.9-5.9 6.9s1.26-6.78 1.13-8.4c-.12-1.64-1.13-4.65-3.5-5.53-2.4-.88-3.27 1.26-2.64 6.15.62 4.9-.5 12.04-.5 12.04s-.76-7.4-1.51-10.16 0 .38-2.89-7.28c-2.88-7.65-.75-10.66-1.88-12.3-1.13-1.62-2.76-6.14-3.39-6.14-.62 0-1.38 1.76-3.13 5.52-1.76 3.77-2.39 12.42-2.39 12.42s-.75-4.51-1.12-12.67c-.38-8.15 1.75-11.67 1.5-13.42-.25-1.76-2.26-8.16-4.64-8.16s-7.4 3.14-14.05 18.07-5.9 24.71-5.9 24.71-1.63-10.41-1.63-13.17 1-15.3 5.4-22.83c4.39-7.53 11.79-9.16 12.8-11.17 1-2-.38-3.64-.76-6.02-.38-2.38 1.13-5.27 1.13-5.27s-3.01 5.77-5.77 7.65c-2.76 1.89-8.53 3.01-13.43 4.65-4.89 1.63-13.67 5.64-13.67 5.64s5.64-6.9 12.67-10.54c7.03-3.64 12.55-5.14 18.44-12.04 5.9-6.9 7.9-15.93 7.9-15.93zm-3.66 2.12s-2.93 10.73-7.99 14.1c-5.05 3.37-12.68 6.12-18.45 10.11-5.76 4-14.01 12.87-14.01 12.87s1.24-8.25 8.25-15.8c7-7.53 18.27-11.35 22.7-14.28 4.44-2.92 9.5-7 9.5-7zm80.56.39c3.85 4.66 10.93 7.2 14.68 8.65 6.63 2.58 24.37 14.06 26.22 28.35 0 0-7.86-8.78-12.67-12.04-13.76-9.32-22.92-8.9-28.23-24.96zm-59.8 1.62c-.54 0-1.04.03-1.5.03-1.87 0-9.01.57-9.01.57s1.64.4 2.22.9c.57.48.66 3.76 4.74 6.02 4.08 2.27 9.36.89 10.07 1.25.71.35 2.3 2.83 2.3 2.83s-.08-7-3.01-9.49a8.3 8.3 0 0 0-5.8-2.1zm38.53 0a8.3 8.3 0 0 0-5.8 2.11c-2.93 2.49-3.02 9.5-3.02 9.5s1.6-2.49 2.31-2.84c.71-.36 5.99 1.02 10.07-1.25 4.08-2.26 4.17-5.54 4.74-6.03.58-.49 2.22-.89 2.22-.89s-7.14-.57-9-.57c-.47 0-.97-.03-1.52-.03zm-39.59 27.9c-.32 0-.75.25-.97.55-.3.52-.04 1.18.31 1.34.26.11.96-.13 1.24-.49.3-.39.08-1.01-.3-1.32a.43.43 0 0 0-.28-.08zm40.66 0c-.11 0-.2.02-.28.08-.38.3-.6.93-.3 1.32.28.36.98.6 1.24.49.35-.16.61-.82.31-1.34a1.4 1.4 0 0 0-.97-.55zm-37.8 2.55c-.25 0-.54.13-.82.39-.49.48-.17 1.17.06 1.35.24.17.8.07 1.2-.41.38-.49.29-1.02-.02-1.23a.7.7 0 0 0-.41-.1zm34.88 0a.68.68 0 0 0-.36.1c-.31.2-.4.74-.01 1.23.39.48.95.58 1.19.4.23-.17.55-.86.06-1.34-.3-.28-.62-.4-.88-.4zm-69.15 0s-7.9 4.8-10.82 12.69c-2.93 7.9-1.51 15.61-1.51 15.61s-2.13-5.32-2.3-8.16c-.19-2.84-.1-8.43.88-11.18.97-2.75 1.6-3.9 4.61-5.67 3.02-1.78 9.14-3.29 9.14-3.29zm105.3.63s5.85 1.15 8.25 3.01c2.4 1.86 4.08 4 4.88 8.7.8 4.7-1.87 15.25-1.87 15.25s1.51-8.25-1.24-14.81c-2.75-6.57-10.02-12.15-10.02-12.15zm-68.61.9c-.31 0-.63.27-.73.63-.06.44.29.65.5.72.6.23 1.03-.62.68-1.12a.56.56 0 0 0-.45-.23zm30.08 0c-.15 0-.3.08-.43.23-.35.5.08 1.35.68 1.12.21-.07.56-.28.5-.72-.1-.37-.43-.64-.75-.63zm-55.42 3.35s-2.57 8.6-2.21 14.46c.35 5.86 2.3 11.89 3.9 16.33 1.6 4.43 1.15 8.07-.36 11.97a40.16 40.16 0 0 1-4.08 7.54s2.66-5.5 1.6-10.82-5.77-14.37-6.3-17.21c-.53-2.84-1.33-9.05 1.78-14.64 3.1-5.59 5.67-7.63 5.67-7.63zm81.08.54s5.24 2.66 7.46 10.64a23.81 23.81 0 0 1-1.87 17.48c-1.6 3.01-4.52 7.9-4.26 11.88.27 4 1.6 9.4 1.6 9.4s-3.37-3.1-4-7.44c-.61-4.35-1.5-10.92 1.25-17.21 2.75-6.3 2.4-12.42 1.69-16.6a83.9 83.9 0 0 0-1.87-8.15zm-55.93 1.36c-.04 0-.08 0-.12.02-.46.2-.9.73-.9 1.08 0 .34.33.71.72.76.5 0 1.07-.4 1.02-.95 0-.4-.28-.92-.72-.9zm30.46 0c-.43 0-.7.5-.7.9-.05.56.51.96 1.02.96.39-.05.72-.42.71-.76 0-.35-.43-.88-.9-1.08a.6.6 0 0 0-.13-.02zm-28.35.94h-.04c-.32.03-.63 1.34.37 1.38.33.02.67-.44.44-.78-.18-.26-.43-.6-.77-.6zm26.25 0c-.33 0-.59.34-.76.6-.23.34.1.8.44.78 1-.04.7-1.35.37-1.38h-.05zm-33.48 2.72c-.26 0-.57.44-.61.84-.05.4.29 1.12.59.98.56-.25.45-1 .28-1.55-.06-.2-.16-.27-.26-.27zm40.72 0c-.1 0-.2.08-.26.27-.17.54-.28 1.3.28 1.55.3.14.64-.57.6-.98-.05-.4-.36-.84-.62-.84zm-38.5 1.75c-.53.02-1.09 1.15-.58 1.63.34.19.61-.2.87-.26-.08.4.48.69.68.32.55-1-.1-.94-.5-.82-.04-.25-.01-.67-.34-.86a.37.37 0 0 0-.12-.01zm36.25 0-.1.01c-.33.2-.3.6-.33.86-.4-.12-1.06-.17-.52.82.2.37.77.09.7-.32.25.06.52.45.86.26.52-.49-.07-1.65-.61-1.63zm-33.73.98c-.36.01-.46.7-.34 1.13.07.26.35.3.58.25.63-.11.65-1.17-.16-1.37a.35.35 0 0 0-.08 0zm31.22 0-.06.01c-.81.2-.8 1.26-.16 1.37.23.05.5 0 .58-.25.13-.43.02-1.14-.36-1.13zm-29.44.45c-.14 0-.23.24-.17.47.05.24.25.47.42.21.12-.18.04-.53-.15-.65a.18.18 0 0 0-.1-.03zm27.67 0a.18.18 0 0 0-.09.03c-.2.12-.27.47-.15.65.17.26.37.03.42-.21.06-.24-.03-.48-.18-.47zm-31.5 3.84a.71.71 0 0 0-.25.04c-.22.09-.33.35-.28.58.04.1.1.17.17.25.31.34.76.65 1.16.3.14-.13.03-.38-.04-.55-.2-.3-.41-.62-.77-.62zm35.35 0c-.36 0-.58.32-.77.62-.07.17-.18.42-.04.54.4.36.85.05 1.16-.3a.8.8 0 0 0 .17-.24c.05-.23-.06-.5-.28-.58a.71.71 0 0 0-.24-.04zm-17.97 1.26v.09s.09-.04.29-.07c.2.03.29.07.29.07v-.1c.7 0 2.14.18 5.05 1.2 4.1 1.47 5.89 4.15 8.13 4.88.08.63.2 2.01-.23 3.07-.58 1.42-1.51 3.33-5.64 4.48-3.6 1-6.7.97-7.44.94h-.32c-.75.03-3.83.07-7.44-.94-4.13-1.15-5.06-3.06-5.64-4.48a6.57 6.57 0 0 1-.23-3.07c2.24-.73 4.02-3.41 8.13-4.87 2.9-1.03 4.36-1.21 5.05-1.2zm-29.45 8.34s.09 4.8 1.86 9.32c1.78 4.52 5.77 8.95 5.77 14.9 0 5.94-2.93 12.95-2.93 12.95s1.06-5.77-.98-11.53c-2.04-5.77-4.34-7.54-4.6-14.28-.27-6.75.88-11.36.88-11.36zm57.84 5.32s2.84 11.45 1.24 16.6c-1.6 5.14-9.4 13.12-9.4 13.12s4.79-8.34 6.03-14.1c1.24-5.77 2.13-15.62 2.13-15.62zm-20.94 11.98s-.27 1.33-2.13 5.32c-1.86 4-7.1 8.7-10.47 12.24-3.37 3.55-13.75 12.33-13.75 12.33s1.25-4.79 2.49-9.93c1.24-5.15 2.75-9.94 5.59-13.75 2.84-3.82 7.9-4.35 11.97-4.53 4.08-.17 6.3-1.68 6.3-1.68z" transform="translate(-19.82 -67)"/></g></svg>