<svg version="1" xmlns="http://www.w3.org/2000/svg" width="800" height="800" viewBox="0 0 600.000000 600.000000"><path d="M462.7 51.7c-1.6.2-4.5 2.1-6.6 4.2-2.9 2.9-4 5-4.9 9.6-2.2 10.6-1 31.7 2 36.5.9 1.4.7 3.3-.8 8.6-1.8 6.5-1.9 10.9-1.9 74.4v67.5l2.5 4.5c4.2 7.6 7.2 8.5 28.5 8.5 16 0 18.4-.2 22-2 9.2-4.7 9.8-9.4 9.3-86.4-.3-53.1-.6-60.1-2.1-64.1-1.9-5.2-2.2-9.3-.6-12.2 1.8-3.4 2.2-6.9 2.2-21.4 0-13-.2-14.6-2.4-19-4-8.1-6.3-8.9-26.9-9-9.6-.1-18.8 0-20.3.3zM94.2 103.3c-4.9 1.5-8.9 5.7-10.2 10.8-1.8 6.3-1.5 25.5.3 29.9 3.6 8.3 8.1 10.1 26.2 10.7 19.2.6 21.1 1.1 10.5 3.4-17.2 3.6-25.7 7.5-33.6 15.3-9.5 9.6-13.7 21.2-13.7 38.1-.1 18 3.9 28.9 14.3 39.5 5.8 5.9 8.4 7.5 19 11.8l6.5 2.6 55.3.4c60.7.3 62.7.2 67.2-5.5 4.3-5.4 4.5-8.5 4.5-57.3 0-41.7-.2-47.3-1.9-54.5-4.2-18.2-12.6-29.9-27-37.7-14.9-8-21.5-8.8-72.5-8.7-26.3.1-42.8.5-44.9 1.2zm81.7 106.6c.8.5 1.1 1.6.8 2.5-.6 1.4-3 1.6-17.5 1.6-13.8 0-17.2-.3-18.2-1.5s-1-1.6.1-1.9c.8-.2 2.1-.7 2.9-.9 2.6-.9 30.4-.7 31.9.2zM281.5 103.5c-4.9 1.7-9 6.2-10.4 11.2-1.6 5.6-1.3 135.8.2 139.8 1.6 4.2 3.6 6.7 7.2 9 2.5 1.6 5.2 2 17.3 2.3 20.4.6 24.5-.1 29.1-4.7 5.8-5.8 6.1-9 6.1-58.6 0-36.7.2-43.4 1.5-44.5 2.3-1.9 23-1 25 1.1 3 3 3.4 9.1 3.5 50 0 22.3.4 41.9.9 43.6 3.3 11.6 8.1 13.6 31.6 13.1 19.4-.4 22.5-1.5 26.5-9.4l2.5-4.9V204c0-48.3-.4-54.9-4.1-65.8-4.2-12.7-12.5-22.5-23.5-27.9-15.4-7.5-22.2-8.3-70.3-8.3-31.1.1-39.9.4-43.1 1.5zM107.5 296.9c-5.7.7-10.9 3.4-13.7 7.1-1 1.4-2.3 5.5-2.9 9-.6 4.1-.9 39.5-.7 95.5l.3 89 2.5 4.9c1.8 3.6 3.6 5.6 6.5 7 3.8 2 5.9 2.1 51.5 2.4 48 .3 60.9-.3 73.5-3.4 25.5-6.4 43.8-19.7 54.6-39.7 9.3-17.1 13.1-35.2 13-62.1-.1-51.6-17.2-85.1-51.3-100.5-9.1-4.2-25.9-8.1-38.4-9-12.8-.9-87.6-1.1-94.9-.2zM200 355c16.9 3.2 22.4 12.8 23.6 41.5.7 14.9-.6 31.1-3.2 40.2-4.3 14.9-12.1 18-45.7 18.3-9.4 0-16.5-.4-17.7-1-2-1-2-2.1-2-49.3 0-36.2.3-48.6 1.2-49.5 1.5-1.5 36.1-1.7 43.8-.2zM331.5 297.2c-2.7.5-6.5 2.1-8.3 3.5-7.1 5.4-6.7-.6-6.7 103.8v94l2.3 4.2c1.5 2.8 3.7 5 6.5 6.5l4.2 2.3 60 .2c58.4.1 60.3 0 70.5-2.1 28.8-6.1 43.9-20.6 48.6-46.6 3.7-20.8 0-38.4-11-52.4-2.5-3.3-4.6-6.6-4.6-7.3 0-.8 1.7-3.7 3.9-6.6 7.9-10.8 10.9-19.1 11.8-32.7.7-12.7-1.5-24.8-6.7-35.5-8-16.6-22.4-25.9-46.3-30.1-7.5-1.3-19.1-1.7-64.2-1.9-32.5-.2-57 .1-60 .7zm105.2 60.4c5.5 4.2 5.3 12.6-.5 15.5-3.7 1.9-51.6 2.6-53.8.9-1.8-1.6-2-16-.1-17.9.9-.9 7.2-1.1 26.4-.9 23.7.3 25.3.4 28 2.4zm-3.4 76.5c5.6 1.5 7.7 4.1 7.7 9.2 0 5.4-2.1 8.3-6.8 9.7-5.4 1.5-50.5 1.3-52-.2-1.6-1.6-1.6-17 0-18.6 1.6-1.6 45.6-1.7 51.1-.1z"/></svg>